<svg width="17" height="30" viewBox="0 0 17 30" fill="none" xmlns="http://www.w3.org/2000/svg">
<g clip-path="url(#clip0_6511_2047)">
<path d="M9.71598 17.8131C9.0063 17.7615 8.70952 17.4131 8.15468 17.0776C7.90952 18.3679 7.61275 19.6195 6.92888 20.4711C6.72243 20.7163 6.32243 20.6002 6.30952 20.2776C6.2063 18.2131 6.91598 16.5744 7.26436 14.8582C6.6063 13.7357 7.34178 11.4905 8.74823 12.0453C10.4773 12.7292 7.25146 16.2002 9.4192 16.6389C11.6773 17.0776 12.6063 12.7163 11.1998 11.297C9.17404 9.24534 5.31598 11.2453 5.79339 14.1873C5.88372 14.7421 6.34823 15.0002 6.29662 15.555C6.25791 15.9034 5.90952 16.097 5.59985 15.955C4.70952 15.5421 4.42565 14.626 4.46436 13.4518C4.54178 11.2324 6.46436 9.67114 8.38694 9.45179C10.8257 9.18082 13.1095 10.3421 13.4192 12.6389C13.7805 15.2066 12.3224 18.0066 9.71598 17.8131Z" fill="white"/>
</g>
<defs>
<clipPath id="clip0_6511_2047">
<rect width="16" height="30" fill="white" transform="translate(0.96875)"/>
</clipPath>
</defs>
</svg>
