<svg width="17" height="30" viewBox="0 0 17 30" fill="none" xmlns="http://www.w3.org/2000/svg">
<g clip-path="url(#clip0_6511_2051)">
<g clip-path="url(#clip1_6511_2051)">
<path d="M14.8012 13.4516C14.8012 12.0452 13.6658 10.9097 12.2593 10.9097H5.67865C4.2722 10.9097 3.13672 12.0452 3.13672 13.4516V16.5484C3.13672 17.9548 4.2722 19.0903 5.67865 19.0903H12.2593C13.6658 19.0903 14.8012 17.9548 14.8012 16.5484V13.4516ZM10.6464 15.1548L8.02704 16.6C7.91091 16.6645 7.80769 16.5742 7.80769 16.4452V13.4903C7.80769 13.3613 7.91091 13.271 8.02704 13.3355L10.6722 14.8452C10.7883 14.9226 10.7625 15.0903 10.6464 15.1548Z" fill="white"/>
</g>
</g>
<defs>
<clipPath id="clip0_6511_2051">
<rect width="16" height="30" fill="white" transform="translate(0.96875)"/>
</clipPath>
<clipPath id="clip1_6511_2051">
<rect width="16" height="30" fill="white" transform="translate(0.96875)"/>
</clipPath>
</defs>
</svg>
