<svg width="17" height="30" viewBox="0 0 17 30" fill="none" xmlns="http://www.w3.org/2000/svg">
<g clip-path="url(#clip0_6511_2030)">
<g clip-path="url(#clip1_6511_2030)">
<path fill-rule="evenodd" clip-rule="evenodd" d="M7.43165 15.0518V20.7809C7.43165 20.8583 7.49617 20.9357 7.58649 20.9357H9.71552C9.79294 20.9357 9.87036 20.8712 9.87036 20.7809V14.9486H11.4058C11.4833 14.9486 11.5478 14.8841 11.5607 14.8067L11.6897 13.0647C11.7026 12.9744 11.6252 12.897 11.5349 12.897H9.85746V11.6583C9.85746 11.3615 10.0897 11.1292 10.3865 11.1292H11.5736C11.651 11.1292 11.7284 11.0647 11.7284 10.9744V9.23248C11.7284 9.15506 11.6639 9.07764 11.5736 9.07764H9.56069C8.38649 9.07764 7.43165 10.0325 7.43165 11.2067V12.897H6.37359C6.29617 12.897 6.21875 12.9615 6.21875 13.0518V14.8067C6.21875 14.8841 6.28327 14.9615 6.37359 14.9615H7.43165V15.0518Z" fill="white"/>
</g>
</g>
<defs>
<clipPath id="clip0_6511_2030">
<rect width="16" height="30" fill="white" transform="translate(0.96875)"/>
</clipPath>
<clipPath id="clip1_6511_2030">
<rect width="16" height="30" fill="white" transform="translate(0.96875)"/>
</clipPath>
</defs>
</svg>
