<svg width="17" height="30" viewBox="0 0 17 30" fill="none" xmlns="http://www.w3.org/2000/svg">
<g clip-path="url(#clip0_6511_2042)">
<path d="M12.2201 11.3354C11.8201 11.3354 11.4976 11.658 11.4976 12.058C11.4976 12.458 11.8201 12.7806 12.2201 12.7806C12.6201 12.7806 12.9427 12.458 12.9427 12.058C12.9427 11.658 12.6201 11.3354 12.2201 11.3354ZM8.99433 12.2645C7.31691 12.2645 5.94917 13.6322 5.94917 15.3096C5.94917 16.987 7.31691 18.3548 8.99433 18.3548C10.6717 18.3548 12.0395 16.987 12.0395 15.3096C12.0395 13.6322 10.6717 12.2645 8.99433 12.2645ZM8.99433 17.2709C7.91046 17.2709 7.04594 16.3935 7.04594 15.3225C7.04594 14.2386 7.92336 13.3741 8.99433 13.3741C10.0782 13.3741 10.9427 14.2515 10.9427 15.3225C10.9427 16.3935 10.0653 17.2709 8.99433 17.2709ZM15.1492 12.7806C15.1492 10.729 13.4847 9.06445 11.433 9.06445H6.51691C4.4653 9.06445 2.80078 10.729 2.80078 12.7806V17.6967C2.80078 19.7483 4.4653 21.4128 6.51691 21.4128H11.4201C13.4717 21.4128 15.1363 19.7483 15.1363 17.6967V12.7806H15.1492ZM13.975 17.6838C13.975 19.0903 12.8266 20.2386 11.4201 20.2386H6.51691C5.11046 20.2386 3.96207 19.0903 3.96207 17.6838V12.7806C3.96207 11.3612 5.09756 10.2257 6.51691 10.2257H11.4201C12.8266 10.2257 13.975 11.3741 13.975 12.7806V17.6838Z" fill="white"/>
</g>
<defs>
<clipPath id="clip0_6511_2042">
<rect width="16" height="30" fill="white" transform="translate(0.96875)"/>
</clipPath>
</defs>
</svg>
