<svg width="17" height="30" viewBox="0 0 17 30" fill="none" xmlns="http://www.w3.org/2000/svg">
<g clip-path="url(#clip0_6511_2036)">
<path d="M14.6836 11.7224C14.3223 11.8901 13.9094 11.9933 13.5223 12.0578C13.7159 12.032 13.9868 11.6836 14.103 11.5546C14.2707 11.3482 14.4126 11.103 14.4901 10.8449C14.503 10.8191 14.503 10.7933 14.4901 10.7804C14.4642 10.7675 14.4513 10.7804 14.4255 10.7804C13.9868 11.0127 13.5352 11.1933 13.0449 11.3095C13.0062 11.3224 12.9804 11.3095 12.9546 11.2836C12.9159 11.232 12.8771 11.1933 12.8384 11.1546C12.632 10.9869 12.4126 10.8449 12.1675 10.7417C11.8449 10.6127 11.4836 10.5482 11.1352 10.574C10.7997 10.5998 10.4642 10.6901 10.1675 10.8449C9.8707 10.9998 9.59973 11.2191 9.38037 11.4901C9.16102 11.7611 8.99328 12.0836 8.91586 12.432C8.83844 12.7675 8.83844 13.0901 8.89005 13.4256C8.90295 13.4772 8.89005 13.4901 8.83844 13.4772C6.92876 13.2062 5.35457 12.5353 4.07715 11.0772C4.02553 11.0127 3.98682 11.0127 3.94811 11.0772C3.39328 11.9159 3.66424 13.2578 4.36102 13.9288C4.45134 14.0191 4.55457 14.1095 4.65779 14.1869C4.61908 14.1998 4.15457 14.1482 3.74166 13.9288C3.69005 13.8901 3.66424 13.9159 3.65134 13.9804C3.65134 14.0707 3.65134 14.1482 3.66424 14.2514C3.76747 15.103 4.36102 15.8901 5.16102 16.1869C5.25134 16.2256 5.36747 16.2643 5.47069 16.2772C5.29005 16.3159 5.0965 16.3417 4.56747 16.303C4.50295 16.2901 4.47715 16.3288 4.50295 16.3804C4.89005 17.4643 5.74166 17.7869 6.38682 17.9675C6.47715 17.9804 6.55457 17.9804 6.64489 18.0062C6.64489 18.0191 6.63199 18.0191 6.63199 18.0191C6.42553 18.3417 5.69005 18.5869 5.34166 18.703C4.72231 18.9224 4.03844 19.0127 3.38037 18.9482C3.27715 18.9353 3.25134 18.9353 3.22553 18.9482C3.19973 18.9611 3.22553 18.9869 3.25134 19.0127C3.38037 19.103 3.52231 19.1804 3.66424 19.2578C4.07715 19.4772 4.51586 19.6578 4.96747 19.7869C7.31586 20.432 9.97392 19.9546 11.7417 18.1998C13.1223 16.832 13.6126 14.9353 13.6126 13.0256C13.6126 12.9482 13.703 12.9095 13.7546 12.8707C14.1159 12.5998 14.3997 12.2772 14.6707 11.9159C14.7352 11.8385 14.7223 11.7611 14.7223 11.7353V11.7224C14.7223 11.6965 14.7352 11.6965 14.6836 11.7224Z" fill="white"/>
<path fill-rule="evenodd" clip-rule="evenodd" d="M6.63193 20.0324C6.67064 20.0324 7.59967 20.0324 6.63193 20.0324C6.61903 20.0324 6.76096 20.0324 6.63193 20.0324ZM6.63193 20.0324C6.43838 20.0324 6.61903 20.0324 6.63193 20.0324V20.0324ZM7.01903 20.0453C7.01903 20.0195 7.22548 20.0453 7.01903 20.0453C7.01903 20.0324 7.04483 20.0453 7.01903 20.0453ZM11.0964 10.6001C11.0835 10.613 11.0706 10.613 11.0448 10.6001C11.0577 10.6001 11.0835 10.6001 11.0964 10.6001Z" fill="white"/>
</g>
<defs>
<clipPath id="clip0_6511_2036">
<rect width="16" height="30" fill="white" transform="translate(0.96875)"/>
</clipPath>
</defs>
</svg>
