<svg width="31" height="39" viewBox="0 0 31 39" fill="none" xmlns="http://www.w3.org/2000/svg">
<g clip-path="url(#clip0_6511_2005)">
<g clip-path="url(#clip1_6511_2005)">
<path d="M24.34 23.084C23.7258 22.4445 22.985 22.1026 22.1999 22.1026C21.4211 22.1026 20.6739 22.4382 20.0344 23.0777L18.0336 25.0722C17.869 24.9835 17.7044 24.9012 17.5461 24.8189C17.3181 24.7049 17.1028 24.5973 16.9192 24.4833C15.045 23.293 13.3418 21.7417 11.7082 19.7345C10.9168 18.7341 10.3849 17.892 9.99867 17.0372C10.5179 16.5624 10.9991 16.0685 11.4676 15.5936C11.6449 15.4163 11.8222 15.2327 11.9995 15.0554C13.3291 13.7258 13.3291 12.0035 11.9995 10.6739L10.2709 8.94532C10.0746 8.74904 9.87203 8.54642 9.68208 8.34381C9.30218 7.95124 8.90328 7.54601 8.49172 7.16611C7.87755 6.55827 7.14307 6.23535 6.3706 6.23535C5.59813 6.23535 4.85099 6.55827 4.21782 7.16611C4.21149 7.17244 4.21149 7.17244 4.20516 7.17878L2.05238 9.35055C1.24192 10.161 0.779705 11.1488 0.678398 12.2948C0.526437 14.1437 1.07096 15.8659 1.48886 16.9929C2.51459 19.7599 4.04687 22.3242 6.33261 25.0722C9.1059 28.3837 12.4427 30.9986 16.2544 32.8412C17.7107 33.5313 19.6545 34.3481 21.8263 34.4874C21.9593 34.4938 22.0986 34.5001 22.2252 34.5001C23.6878 34.5001 24.9162 33.9746 25.8786 32.9298C25.8849 32.9172 25.8976 32.9108 25.9039 32.8982C26.2332 32.4993 26.6131 32.1384 27.012 31.7521C27.2842 31.4925 27.5628 31.2203 27.8351 30.9353C28.4619 30.2832 28.7912 29.5234 28.7912 28.7446C28.7912 27.9594 28.4556 27.206 27.8161 26.5728L24.34 23.084ZM26.6067 29.7513C26.6004 29.7513 26.6004 29.7576 26.6067 29.7513C26.3598 30.0172 26.1065 30.2578 25.8343 30.5238C25.4227 30.9163 25.0048 31.3279 24.6122 31.7901C23.9727 32.4739 23.2193 32.7969 22.2315 32.7969C22.1365 32.7969 22.0352 32.7969 21.9403 32.7905C20.0597 32.6702 18.3122 31.9357 17.0015 31.3089C13.4178 29.574 10.2709 27.111 7.65594 23.9895C5.49683 21.3871 4.0532 18.9811 3.09711 16.3977C2.50826 14.8211 2.29298 13.5928 2.38796 12.4341C2.45128 11.6933 2.7362 11.0791 3.26173 10.5536L5.42085 8.39446C5.7311 8.1032 6.06035 7.94491 6.38326 7.94491C6.78216 7.94491 7.10508 8.18552 7.30769 8.38813C7.31402 8.39446 7.32036 8.40079 7.32669 8.40713C7.71292 8.76803 8.08016 9.1416 8.4664 9.5405C8.66268 9.74312 8.86529 9.94573 9.06791 10.1547L10.7965 11.8832C11.4676 12.5544 11.4676 13.1749 10.7965 13.8461C10.6128 14.0297 10.4356 14.2133 10.2519 14.3906C9.72007 14.9351 9.21354 15.4417 8.66268 15.9355C8.65001 15.9482 8.63735 15.9545 8.63102 15.9672C8.08649 16.5117 8.1878 17.0436 8.30177 17.4045C8.3081 17.4235 8.31443 17.4425 8.32077 17.4615C8.77032 18.5505 9.40349 19.5763 10.3659 20.7983L10.3722 20.8046C12.1198 22.9574 13.9623 24.6353 15.9948 25.9206C16.2544 26.0852 16.5203 26.2182 16.7736 26.3448C17.0015 26.4588 17.2168 26.5665 17.4004 26.6804C17.4258 26.6931 17.4511 26.7121 17.4764 26.7248C17.6917 26.8324 17.8943 26.883 18.1033 26.883C18.6288 26.883 18.958 26.5538 19.0657 26.4462L21.2311 24.2807C21.4464 24.0654 21.7883 23.8058 22.1872 23.8058C22.5798 23.8058 22.9027 24.0528 23.099 24.268C23.1053 24.2744 23.1053 24.2744 23.1116 24.2807L26.6004 27.7695C27.2526 28.4153 27.2526 29.0801 26.6067 29.7513Z" fill="black"/>
<path d="M16.8442 11.6361C18.5031 11.9147 20.0101 12.6998 21.2131 13.9029C22.4161 15.1059 23.1949 16.6128 23.4798 18.2717C23.5495 18.6896 23.9104 18.9809 24.322 18.9809C24.3726 18.9809 24.4169 18.9746 24.4676 18.9682C24.9361 18.8922 25.2464 18.449 25.1704 17.9805C24.8285 15.9733 23.8787 14.1435 22.4288 12.6935C20.9788 11.2435 19.149 10.2938 17.1418 9.95187C16.6733 9.87589 16.2364 10.1861 16.1541 10.6484C16.0718 11.1106 16.3757 11.5601 16.8442 11.6361Z" fill="black"/>
<path d="M30.5963 17.7336C30.0327 14.4285 28.4751 11.4209 26.0818 9.02754C23.6884 6.63415 20.6808 5.07655 17.3757 4.51303C16.9134 4.43072 16.4766 4.7473 16.3942 5.20952C16.3183 5.67807 16.6285 6.11495 17.0971 6.19727C20.0476 6.69747 22.7386 8.09678 24.8787 10.2306C27.0189 12.3707 28.4118 15.0617 28.912 18.0122C28.9817 18.4301 29.3426 18.7214 29.7541 18.7214C29.8048 18.7214 29.8491 18.715 29.8998 18.7087C30.362 18.6391 30.6786 18.1958 30.5963 17.7336Z" fill="black"/>
</g>
</g>
<defs>
<clipPath id="clip0_6511_2005">
<rect width="30" height="38" fill="white" transform="translate(0.628906 0.5)"/>
</clipPath>
<clipPath id="clip1_6511_2005">
<rect width="30" height="30" fill="white" transform="translate(0.628906 4.5)"/>
</clipPath>
</defs>
</svg>
